<svg xmlns="http://www.w3.org/2000/svg" width="844" height="252" viewBox="0 0 844 252" fill="none"><path d="M826.51 124.47H764.77V67H826.51C831.66 67 835.84 68.56 839.07 71.68C842.35 74.8 844 78.8 844 83.67V107.81C844 112.68 842.36 116.68 839.07 119.8C835.84 122.92 831.65 124.48 826.51 124.48V124.47ZM822.979 81.2H780.859V110.26H822.979C824.399 110.26 825.58 109.82 826.51 108.95C827.44 108.02 827.909 106.84 827.909 105.42V86.04C827.909 84.62 827.44 83.47 826.51 82.59C825.58 81.66 824.399 81.19 822.979 81.19V81.2Z" fill="white"></path><path d="M721.38 105.42V86.04C721.38 84.62 720.92 83.47 719.98 82.59C719.05 81.66 717.87 81.19 716.45 81.19H677.53C676.16 81.19 675.01 81.66 674.08 82.59C673.15 83.47 672.68 84.62 672.68 86.04V105.42C672.68 106.84 673.14 108.02 674.08 108.95C675.01 109.83 676.16 110.26 677.53 110.26H716.45C717.87 110.26 719.05 109.82 719.98 108.95C720.91 108.02 721.38 106.84 721.38 105.42ZM737.47 83.67V107.81C737.47 112.68 735.83 116.68 732.54 119.8C729.31 122.92 725.12 124.48 719.98 124.48H674.17C669.03 124.48 664.81 122.92 661.53 119.8C658.25 116.68 656.6 112.68 656.6 107.81V83.67C656.6 78.8 658.24 74.8 661.53 71.68C664.81 68.56 669.03 67 674.17 67H719.98C725.13 67 729.31 68.56 732.54 71.68C735.82 74.8 737.47 78.8 737.47 83.67Z" fill="white"></path><path d="M570.36 67V89.33H613.13V67H629.22V124.47H613.13V103.53H570.36V124.47H554.27V67H570.36Z" fill="white"></path><path d="M530.18 81.2H499.31V124.47H483.22V81.2H452.35V67H530.18V81.2Z" fill="white"></path><path d="M422.71 102.55H374.52V110.27H429.86V124.47H358.43V67H429.69V81.2H374.52V88.84H422.71V102.55Z" fill="white"></path><path d="M281.91 119.4L261.09 91.14V124.47H245V67H263.06L287.36 105.38L311.66 67H329.72V124.47H313.63V91.14L292.91 119.4H281.91Z" fill="white"></path><path d="M832.68 184.99H808.07C805.06 184.99 802.6 184.08 800.68 182.26C798.76 180.44 797.8 178.1 797.8 175.26V161.15C797.8 158.3 798.76 155.97 800.68 154.15C802.6 152.33 805.06 151.42 808.07 151.42H843.24V159.72H810.04C809.24 159.72 808.57 159.99 808.03 160.54C807.49 161.05 807.21 161.72 807.21 162.55V173.87C807.21 174.7 807.48 175.39 808.03 175.93C808.57 176.44 809.25 176.7 810.04 176.7H835.04V172H822.07V164.47H844.01V185H832.69L832.68 184.99Z" fill="white"></path><path d="M758.53 184.99L734.11 162.49V184.99H724.71V151.41H734.59L759.01 173.91V151.41H768.41V184.99H758.53Z" fill="white"></path><path d="M694.49 151.41V184.99H685.09V151.41H694.49Z" fill="white"></path><path d="M657.58 159.71H639.54V184.99H630.14V159.71H612.1V151.41H657.58V159.71Z" fill="white"></path><path d="M581.419 172.18H553.179V176.69H585.519V184.99H543.779V151.41H585.419V159.71H553.179V164.17H581.419V172.18Z" fill="white"></path><path d="M481.24 151.41V164.51L504.27 151.41C509.92 151.41 515.58 151.41 521.23 151.41C511.89 157.07 502.55 162.73 493.21 168.39C503 173.93 514.35 179.47 524.14 185.01C518.47 185.01 511.24 185.01 505.57 185.01C497.46 180.85 489.35 176.68 481.24 172.52V184.99H471.84V151.41H481.24Z" fill="white"></path><path d="M399.43 184.99V151.41H432.01C435.34 151.41 438.06 152.45 440.17 154.53C442.31 156.61 443.38 159.25 443.38 162.45V163.36C443.38 165.85 442.61 168.05 441.08 169.93C439.55 171.81 437.51 173.13 434.99 173.86L443.96 184.99H433.31L425.06 174.39H408.84V184.99H399.44H399.43ZM430.8 159.71H408.83V166.38H430.85C431.81 166.38 432.56 166.12 433.1 165.61C433.68 165.07 433.96 164.35 433.96 163.45V162.63C433.96 161.73 433.67 161.03 433.1 160.52C432.52 159.98 431.76 159.7 430.8 159.7V159.71Z" fill="white"></path><path d="M351.83 151.41L372.94 184.99H361.91L358.12 178.75H335.76L332.02 184.99H320.99L342.1 151.41H351.84H351.83ZM346.93 160.19L340.17 171.42H353.7L346.94 160.19H346.93Z" fill="white"></path><path d="M266.69 182.03L254.4 165.52V185H245V151.42H255.55L269.75 174.04L283.95 151.42H294.5V185H285.1V165.52L273.11 182.03H266.68H266.69Z" fill="white"></path><path d="M90.0265 68.4633C78.4064 68.4633 68.9546 77.5259 68.9546 88.6642V143.067H74.5978V88.6642C74.5978 80.5097 81.5199 73.8379 90.0265 73.8379C98.5331 73.8379 105.455 80.4726 105.455 88.6642V143.067H111.098V88.6642C111.098 77.5259 101.647 68.4633 90.0265 68.4633Z" fill="white"></path><path fill-rule="evenodd" clip-rule="evenodd" d="M67.9546 88.6642C67.9546 76.9343 77.8943 67.4633 90.0265 67.4633C102.159 67.4633 112.098 76.9343 112.098 88.6642V144.067H104.455V88.6642C104.455 81.0628 98.0195 74.8379 90.0265 74.8379C82.0352 74.8379 75.5978 81.0983 75.5978 88.6642V144.067H67.9546V88.6642ZM90.0265 69.4633C78.9185 69.4633 69.9546 78.1175 69.9546 88.6642V142.067H73.5978V88.6642C73.5978 79.9211 81.0046 72.8379 90.0265 72.8379C99.0467 72.8379 106.455 79.8825 106.455 88.6642V142.067H110.098V88.6642C110.098 78.1175 101.134 69.4633 90.0265 69.4633Z" fill="white"></path><path fill-rule="evenodd" clip-rule="evenodd" d="M68.4912 88.6642C68.4912 77.2518 78.169 68 90.0264 68C101.884 68 111.562 77.2518 111.562 88.6642V143.531H104.992V88.6642C104.992 80.7461 98.2951 74.3012 90.0264 74.3012C81.7586 74.3012 75.0611 80.7824 75.0611 88.6642V143.531H68.4912V88.6642ZM90.0264 68.9266C78.6436 68.9266 69.4179 77.8 69.4179 88.6642V142.604H74.1345V88.6642C74.1345 80.237 81.2811 73.3746 90.0264 73.3746C98.771 73.3746 105.918 80.1992 105.918 88.6642V142.604H110.635V88.6642C110.635 77.8 101.409 68.9266 90.0264 68.9266Z" fill="white"></path><path fill-rule="evenodd" clip-rule="evenodd" d="M67.4912 88.6642C67.4912 76.66 77.6572 67 90.0264 67C102.396 67 112.562 76.66 112.562 88.6642V144.531H103.992V88.6642C103.992 81.3359 97.7811 75.3012 90.0264 75.3012C82.2742 75.3012 76.0611 81.3707 76.0611 88.6642V144.531H67.4912V88.6642ZM109.635 141.604V88.6642C109.635 78.3914 100.897 69.9266 90.0264 69.9266C79.156 69.9266 70.4179 78.3914 70.4179 88.6642V141.604H73.1345V88.6642C73.1345 79.6481 80.7662 72.3746 90.0264 72.3746C99.2843 72.3746 106.918 79.6087 106.918 88.6642V141.604H109.635Z" fill="white"></path><path d="M53.526 68.4633C41.9152 68.4633 32.4634 77.5259 32.4634 88.6642H38.1066C38.1066 80.5097 45.0194 73.8379 53.526 73.8379C62.0326 73.8379 68.9546 80.4726 68.9546 88.6642V143.067H74.5979V88.6642C74.5979 77.5259 65.1461 68.4633 53.526 68.4633Z" fill="white"></path><path fill-rule="evenodd" clip-rule="evenodd" d="M31.4634 88.6642C31.4634 76.9346 41.4027 67.4633 53.526 67.4633C65.6583 67.4633 75.5979 76.9343 75.5979 88.6642V144.067H67.9546V88.6642C67.9546 81.0628 61.519 74.8379 53.526 74.8379C45.5355 74.8379 39.1066 81.0975 39.1066 88.6642V89.6642H31.4634V88.6642ZM33.4903 87.6642H37.1391C37.6774 79.388 44.85 72.8379 53.526 72.8379C62.5462 72.8379 69.9546 79.8825 69.9546 88.6642V142.067H73.5979V88.6642C73.5979 78.1175 64.634 69.4633 53.526 69.4633C42.7804 69.4633 34.0355 77.5757 33.4903 87.6642Z" fill="white"></path><path fill-rule="evenodd" clip-rule="evenodd" d="M32 88.6642C32 77.2519 41.6777 68 53.526 68C65.3834 68 75.0612 77.2518 75.0612 88.6642V143.531H68.4913V88.6642C68.4913 80.7461 61.7946 74.3012 53.526 74.3012C45.2585 74.3012 38.5699 80.7821 38.5699 88.6642V89.1275H32V88.6642ZM32.9322 88.2009H37.6505C37.9063 79.9873 44.9411 73.3746 53.526 73.3746C62.2705 73.3746 69.4179 80.1992 69.4179 88.6642V142.604H74.1345V88.6642C74.1345 77.8 64.9088 68.9266 53.526 68.9266C42.3146 68.9266 33.1901 77.5487 32.9322 88.2009Z" fill="white"></path><path fill-rule="evenodd" clip-rule="evenodd" d="M31 88.6642C31 76.6604 41.1655 67 53.526 67C65.8952 67 76.0612 76.66 76.0612 88.6642V144.531H67.4913V88.6642C67.4913 81.3359 61.2806 75.3012 53.526 75.3012C45.7749 75.3012 39.5699 81.3695 39.5699 88.6642V90.1275H31V88.6642ZM33.986 87.2009H36.7109C37.4832 78.8741 44.7707 72.3746 53.526 72.3746C62.7838 72.3746 70.4179 79.6087 70.4179 88.6642V141.604H73.1345V88.6642C73.1345 78.3914 64.3964 69.9266 53.526 69.9266C43.186 69.9266 34.768 77.6 33.986 87.2009Z" fill="white"></path><path d="M121.792 187.518L117.77 183.719L177.279 125.748C179.689 123.455 181.228 120.396 181.634 117.094C181.634 116.871 181.634 116.667 181.69 116.454C181.877 113.65 181.454 110.839 180.451 108.214C179.448 105.589 177.889 103.213 175.88 101.248C173.818 99.2222 171.366 97.6369 168.672 96.5887C165.978 95.5405 163.099 95.0513 160.21 95.1506C155.791 95.2879 151.527 96.8152 148.025 99.5151L144.485 95.2896C149.668 91.3293 156.106 89.3711 162.617 89.7745C169.128 90.1779 175.274 92.9158 179.929 97.4858C182.496 99.9866 184.489 103.016 185.769 106.363C187.049 109.71 187.586 113.296 187.342 116.871C187.342 117.149 187.342 117.418 187.268 117.677C186.72 122.206 184.617 126.405 181.319 129.557L121.792 187.518Z" fill="white"></path><path fill-rule="evenodd" clip-rule="evenodd" d="M145.937 95.4653L148.188 98.1529C151.702 95.6804 155.869 94.2854 160.178 94.1512C163.202 94.0474 166.215 94.5596 169.035 95.6568C171.854 96.754 174.421 98.4132 176.58 100.533C178.692 102.599 180.331 105.098 181.386 107.857C182.44 110.617 182.884 113.573 182.688 116.521L182.682 116.615L182.658 116.707C182.639 116.776 182.634 116.853 182.634 117.094V117.155L182.627 117.216C182.193 120.746 180.548 124.016 177.973 126.469C177.972 126.47 177.97 126.471 177.969 126.473L119.215 183.708L121.781 186.133L180.628 128.834C183.759 125.842 185.755 121.856 186.276 117.557L186.285 117.479L186.307 117.403C186.336 117.301 186.343 117.175 186.343 116.871V116.837L186.345 116.803C186.578 113.372 186.063 109.932 184.835 106.72C183.606 103.508 181.695 100.602 179.232 98.202L179.229 98.1994C174.746 93.798 168.826 91.1611 162.555 90.7726C156.634 90.4057 150.775 92.0671 145.937 95.4653ZM143.878 94.495C149.253 90.3886 155.928 88.3581 162.679 88.7764C169.429 89.1947 175.802 92.0331 180.629 96.7709C183.299 99.3726 185.371 102.524 186.703 106.006C188.03 109.478 188.59 113.196 188.343 116.904C188.343 116.906 188.343 116.907 188.343 116.909C188.343 117.145 188.343 117.499 188.253 117.866C187.664 122.597 185.461 126.981 182.014 130.276C182.013 130.278 182.011 130.279 182.01 130.28L121.802 188.904L116.326 183.73L176.59 125.024C178.817 122.904 180.245 120.081 180.634 117.031C180.634 116.848 180.637 116.589 180.697 116.308C180.861 113.674 180.459 111.036 179.517 108.571C178.566 106.081 177.086 103.827 175.181 101.963L175.179 101.961C173.214 100.031 170.877 98.5197 168.309 97.5207C165.742 96.5217 162.998 96.0553 160.245 96.1501L160.241 96.1502C156.032 96.2809 151.971 97.7355 148.636 100.307L147.875 100.893L143.047 95.13L143.878 94.495Z" fill="white"></path><path fill-rule="evenodd" clip-rule="evenodd" d="M144.986 95.3471L148.079 99.0383C151.587 96.4195 155.818 94.9396 160.199 94.8034C163.135 94.7025 166.06 95.1998 168.798 96.265C171.535 97.3302 174.027 98.941 176.123 101C178.168 103 179.755 105.419 180.776 108.09C181.797 110.762 182.227 113.623 182.037 116.477L182.034 116.51L182.026 116.542C181.984 116.705 181.982 116.865 181.982 117.094V117.115L181.979 117.136C181.563 120.517 179.987 123.649 177.52 125.999C177.52 125.999 177.519 126 177.519 126L118.272 183.716L121.788 187.037L181.077 129.308L181.079 129.306C184.319 126.209 186.385 122.085 186.923 117.636L186.927 117.608L186.934 117.582C186.993 117.377 186.995 117.158 186.995 116.871V116.859L186.996 116.848C187.235 113.322 186.706 109.787 185.444 106.487C184.182 103.187 182.217 100.2 179.687 97.7347L179.686 97.7338C175.091 93.2225 169.023 90.5196 162.595 90.1214C156.289 89.7307 150.052 91.5843 144.986 95.3471ZM144.274 95.0136C149.524 91.0025 156.044 89.0192 162.638 89.4278C169.232 89.8363 175.458 92.6092 180.172 97.2374C182.775 99.7733 184.795 102.845 186.093 106.239C187.39 109.63 187.935 113.261 187.69 116.883V116.891C187.69 117.148 187.69 117.448 187.61 117.745C187.047 122.344 184.91 126.606 181.56 129.807C181.56 129.807 181.56 129.808 181.559 129.808L121.795 188L117.268 183.723L177.037 125.5L177.039 125.497C179.386 123.263 180.886 120.286 181.287 117.072C181.287 116.87 181.287 116.642 181.345 116.4C181.524 113.657 181.108 110.907 180.127 108.338C179.142 105.76 177.61 103.426 175.637 101.496C173.609 99.5037 171.196 97.9438 168.546 96.9127C165.896 95.8815 163.064 95.4002 160.222 95.498L160.221 95.498C155.874 95.6331 151.681 97.1351 148.237 99.7904L147.973 99.9942L143.985 95.2343L144.274 95.0136Z" fill="white"></path><path d="M179.781 164.093C179.781 172.535 172.618 179.401 163.815 179.401C155.012 179.401 147.849 172.535 147.849 164.065L147.627 143.067V88.6642C147.627 77.5444 138.175 68.4633 126.564 68.4633C114.953 68.4633 105.492 77.5259 105.492 88.6642V143.067H111.135V88.6642C111.135 80.5097 118.058 73.8379 126.564 73.8379C135.071 73.8379 141.983 80.4726 141.983 88.6642V143.095L142.206 164.093C142.206 175.519 151.908 184.813 163.815 184.813C175.723 184.813 185.425 175.546 185.425 164.093H179.781Z" fill="white"></path><path fill-rule="evenodd" clip-rule="evenodd" d="M104.492 88.6642C104.492 76.934 114.441 67.4633 126.564 67.4633C138.688 67.4633 148.627 76.9537 148.627 88.6642V143.067L148.849 164.065C148.849 171.944 155.525 178.401 163.815 178.401C172.106 178.401 178.781 171.943 178.781 164.093V163.093H186.425V164.093C186.425 176.139 176.234 185.813 163.815 185.813C151.398 185.813 141.209 176.113 141.206 164.099C141.206 164.097 141.206 164.095 141.206 164.093L140.984 143.106L140.983 143.095V88.6642C140.983 81.0621 134.556 74.8379 126.564 74.8379C118.573 74.8379 112.135 81.0983 112.135 88.6642V144.067H104.492V88.6642ZM126.564 69.4633C115.465 69.4633 106.492 78.1178 106.492 88.6642V142.067H110.135V88.6642C110.135 79.9211 117.542 72.8379 126.564 72.8379C135.585 72.8379 142.983 79.8832 142.983 88.6642V143.095L143.206 164.093C143.206 174.927 152.42 183.813 163.815 183.813C174.86 183.813 183.854 175.492 184.398 165.093H180.75C180.21 173.657 172.784 180.401 163.815 180.401C154.501 180.401 146.852 173.128 146.849 164.07C146.849 164.069 146.849 164.067 146.849 164.065L146.627 143.078L146.627 143.067V88.6642C146.627 78.1352 137.662 69.4633 126.564 69.4633Z" fill="white"></path><path fill-rule="evenodd" clip-rule="evenodd" d="M105.029 88.6642C105.029 77.2517 114.716 68 126.564 68C138.413 68 148.09 77.2707 148.09 88.6642V143.067L148.312 164.065C148.312 172.261 155.25 178.938 163.815 178.938C172.381 178.938 179.318 172.261 179.318 164.093V163.63H185.888V164.093C185.888 175.821 175.959 185.276 163.815 185.276C151.671 185.276 141.744 175.794 141.742 164.096C141.742 164.095 141.742 164.094 141.742 164.093L141.52 143.1L141.52 143.095V88.6642C141.52 80.7457 134.832 74.3012 126.564 74.3012C118.296 74.3012 111.599 80.7824 111.599 88.6642V143.531H105.029V88.6642ZM126.564 68.9266C115.19 68.9266 105.955 77.8001 105.955 88.6642V142.604H110.672V88.6642C110.672 80.237 117.819 73.3746 126.564 73.3746C135.309 73.3746 142.447 80.1996 142.447 88.6642V143.095L142.669 164.093C142.669 175.244 152.145 184.349 163.815 184.349C175.324 184.349 184.698 175.522 184.956 164.556H180.238C179.981 173.058 172.695 179.865 163.815 179.865C154.775 179.865 147.387 172.81 147.386 164.068C147.386 164.067 147.386 164.066 147.386 164.065L147.163 143.072L147.163 143.067V88.6642C147.163 77.8182 137.937 68.9266 126.564 68.9266Z" fill="white"></path><path fill-rule="evenodd" clip-rule="evenodd" d="M104.029 88.6642C104.029 76.6595 114.204 67 126.564 67C138.925 67 149.09 76.6798 149.09 88.6642V143.067L149.312 164.065C149.312 171.671 155.764 177.938 163.815 177.938C171.868 177.938 178.318 171.669 178.318 164.093V162.63H186.888V164.093C186.888 176.414 176.47 186.276 163.815 186.276C151.161 186.276 140.746 176.388 140.742 164.099C140.742 164.098 140.742 164.097 140.742 164.096V164.094L140.52 143.111L140.52 143.105L140.52 143.1L140.52 143.095V88.6642C140.52 81.3348 134.318 75.3012 126.564 75.3012C118.812 75.3012 112.599 81.3707 112.599 88.6642V144.531H104.029V88.6642Z" fill="white"></path><path fill-rule="evenodd" clip-rule="evenodd" d="M109.5 2L218 64.0025V187.998L109.5 250L1 187.998V64.0025L109.5 2ZM7.97365 67.9875V184.013L109.5 242.03L211.026 184.013V67.9874L109.5 9.97006L7.97365 67.9875Z" fill="white"></path><path fill-rule="evenodd" clip-rule="evenodd" d="M109.5 0.848267L219 63.4222V188.578L109.5 251.152L0 188.578V63.4222L109.5 0.848267ZM2 64.5828V187.417L109.5 248.848L217 187.417V64.5828L109.5 3.15179L2 64.5828ZM109.5 8.81832L212.026 67.4072V184.593L109.5 243.182L6.97365 184.593V67.4072L109.5 8.81832ZM8.97365 68.5678V183.432L109.5 240.878L210.026 183.432V68.5678L109.5 11.1218L8.97365 68.5678Z" fill="white"></path></svg>